<svg xmlns="http://www.w3.org/2000/svg" viewBox="0 0 100 100" width="100%" height="100%">
  <circle cx="50" cy="50" r="40" fill="#F4EAE1" />
  
  <rect x="52" y="26" width="22" height="22" rx="3" fill="#FFFFFF" stroke="#2C3E50" stroke-width="2" />
  <path d="M 60,33 A 3.5,3.5 0 0 1 65,37 A 4.5,4.5 0 0 0 60,33" fill="#2C3E50" />
  <line x1="57" y1="42" x2="69" y2="42" stroke="#BDC3C7" stroke-width="1.5" stroke-linecap="round" />
  
  <rect x="26" y="52" width="22" height="22" rx="3" fill="#FFFFFF" stroke="#2C3E50" stroke-width="2" />
  <rect x="31" y="57" width="12" height="4" fill="#E74C3C" rx="1" />
  <line x1="31" y1="66" x2="43" y2="66" stroke="#BDC3C7" stroke-width="1.5" stroke-linecap="round" />
  
  <path d="M 38,42 C 38,36 44,34 46,34" fill="none" stroke="#2C3E50" stroke-width="2" stroke-linecap="round" />
  <polygon points="44,31 50,34 44,37" fill="#2C3E50" />
  
  <path d="M 62,58 C 62,64 56,66 54,66" fill="none" stroke="#2C3E50" stroke-width="2" stroke-linecap="round" />
  <polygon points="56,69 50,66 56,63" fill="#2C3E50" />
</svg>
