<svg xmlns="http://www.w3.org/2000/svg" viewBox="0 0 100 100" width="100%" height="100%">
  <circle cx="50" cy="50" r="40" fill="#E8F4F8" />
  
  <rect x="30" y="28" width="40" height="44" rx="3" fill="#FFFFFF" stroke="#2C3E50" stroke-width="2.5" stroke-linejoin="round" />
  
  <path d="M 30,36 L 30,31 C 30,29 32,28 34,28 L 66,28 C 68,29 70,31 70,31 L 70,36 Z" fill="#5DADE2" stroke="#2C3E50" stroke-width="2.5" stroke-linejoin="round" />
  
  <g stroke="#BDC3C7" stroke-width="1.5" stroke-linecap="round">
    <line x1="36" y1="46" x2="64" y2="46" />
    <line x1="36" y1="54" x2="64" y2="54" />
    <line x1="36" y1="62" x2="64" y2="62" />
    <line x1="42" y1="42" x2="42" y2="66" />
    <line x1="50" y1="42" x2="50" y2="66" />
    <line x1="58" y1="42" x2="58" y2="66" />
  </g>
  
  <path d="M 62,56 L 68,56 L 68,68 L 62,68 Z" fill="#FFFFFF" stroke="#2C3E50" stroke-width="1.5" />
  <polygon points="61,56 69,56 65,50" fill="#F1C40F" stroke="#2C3E50" stroke-width="1.5" stroke-linejoin="round" />
</svg>
