<svg xmlns="http://www.w3.org/2000/svg" viewBox="0 0 100 100" width="100%" height="100%">
  <circle cx="50" cy="50" r="40" fill="#FFF3E0" />
  
  <path d="M 50,66 C 42,64 30,66 28,58 L 32,34 C 34,42 46,40 50,43 Z" fill="#FFFFFF" stroke="#2C3E50" stroke-width="2.5" stroke-linejoin="round" />
  <path d="M 50,66 C 58,64 70,66 72,58 L 68,34 C 66,42 54,40 50,43 Z" fill="#FFFFFF" stroke="#2C3E50" stroke-width="2.5" stroke-linejoin="round" />
  
  <path d="M 64,41 L 58,41 L 58,45 L 64,45 M 62,41 L 62,49" fill="none" stroke="#E67E22" stroke-width="2" stroke-linecap="round" stroke-linejoin="round" />
  <circle cx="38" cy="45" r="2" fill="#E67E22" stroke="#E67E22" stroke-width="0.5" />
  
  <g stroke="#BDC3C7" stroke-width="1.5" stroke-linecap="round">
    <line x1="34" y1="52" x2="44" y2="52" />
    <line x1="34" y1="58" x2="42" y2="58" />
    
    <line x1="66" y1="52" x2="56" y2="52" />
    <line x1="66" y1="58" x2="58" y2="58" />
  </g>
</svg>
