<svg xmlns="http://www.w3.org/2000/svg" viewBox="0 0 100 100" width="100%" height="100%">
  <!-- الخلفية الدائرية -->
  <circle cx="50" cy="50" r="40" fill="#E8F5E9" />
  
  <!-- رمز قبة المسجد والمئذنة المبسطة -->
  <path d="M 32,68 L 68,68 L 68,60 L 32,60 Z" fill="#E8F5E9" stroke="#2C3E50" stroke-width="2" />
  <!-- القبة -->
  <path d="M 38,60 C 38,48 50,48 50,48 C 50,48 62,48 62,60 Z" fill="#A5D6A7" stroke="#2C3E50" stroke-width="2" stroke-linejoin="round" />
  <!-- هلال القبة -->
  <path d="M 50,44 A 3,3 0 0 1 52,47" fill="none" stroke="#2C3E50" stroke-width="1.5" stroke-linecap="round" />
  
  <!-- مؤشر الموقع الجغرافي المحيط (Pin) -->
  <path d="M 50,22 C 40,22 34,28 34,36 C 34,46 50,58 50,58 C 50,58 66,46 66,36 C 66,28 60,22 50,22 Z" fill="none" stroke="#E74C3C" stroke-width="2.5" stroke-linejoin="round" />
  <circle cx="50" cy="34" r="3" fill="#E74C3C" />
</svg>
