<svg xmlns="http://www.w3.org/2000/svg" viewBox="0 0 100 100" width="100%" height="100%">
  <circle cx="50" cy="50" r="40" fill="#E1F5FE" />
  
  <circle cx="50" cy="50" r="26" fill="#FFFFFF" stroke="#2C3E50" stroke-width="2.5" />
  
  <line x1="50" y1="28" x2="50" y2="31" stroke="#2C3E50" stroke-width="2" stroke-linecap="round" />
  <line x1="50" y1="69" x2="50" y2="72" stroke="#2C3E50" stroke-width="2" stroke-linecap="round" />
  <line x1="28" y1="50" x2="31" y2="50" stroke="#2C3E50" stroke-width="2" stroke-linecap="round" />
  <line x1="69" y1="50" x2="72" y2="50" stroke="#2C3E50" stroke-width="2" stroke-linecap="round" />
  
  <path d="M 40,60 C 40,51 50,51 50,51 C 50,51 60,51 60,60" fill="none" stroke="#2C3E50" stroke-width="2" stroke-linecap="round" />
  <path d="M 34,62 L 38,62 L 38,44 L 34,44 Z" fill="#81D4FA" stroke="#2C3E50" stroke-width="1.5" stroke-linejoin="round" />
  <polygon points="33,44 39,44 36,39" fill="#FFF176" stroke="#2C3E50" stroke-width="1.5" stroke-linejoin="round" />
  
  <line x1="50" y1="50" x2="50" y2="38" stroke="#2C3E50" stroke-width="2.5" stroke-linecap="round" /> <line x1="50" y1="50" x2="58" y2="55" stroke="#E67E22" stroke-width="2.5" stroke-linecap="round" /> <circle cx="50" cy="50" r="2" fill="#2C3E50" />
</svg>
