<svg xmlns="http://www.w3.org/2000/svg" viewBox="0 0 100 100" width="100%" height="100%">
  <circle cx="50" cy="50" r="40" fill="#E8F5E9" />
  
  <path d="M 36,28 L 68,28 C 70,28 72,30 72,32 L 72,72 C 72,74 70,76 68,76 L 36,76 Z" fill="#F4EAE1" stroke="#2C3E50" stroke-width="2.5" stroke-linejoin="round" />
  
  <rect x="32" y="24" width="36" height="52" rx="3" fill="#2E7D32" stroke="#2C3E50" stroke-width="2.5" stroke-linejoin="round" />
  
  <rect x="36" y="28" width="28" height="44" rx="1.5" fill="none" stroke="#F1C40F" stroke-width="1.5" opacity="0.9" />
  
  <g transform="translate(50,50) scale(1.1)" stroke="#F1C40F" stroke-width="1.5" fill="#F1C40F" stroke-linejoin="round">
    <rect x="-5" y="-5" width="10" height="10" />
    <rect x="-5" y="-5" width="10" height="10" transform="rotate(45)" />
    <circle cx="0" cy="0" r="1.5" fill="#2E7D32" stroke="#F1C40F" stroke-width="1" />
  </g>
  
  <circle cx="39" cy="31" r="1" fill="#F1C40F" />
  <circle cx="61" cy="31" r="1" fill="#F1C40F" />
  <circle cx="39" cy="69" r="1" fill="#F1C40F" />
  <circle cx="61" cy="69" r="1" fill="#F1C40F" />
</svg>
