<svg xmlns="http://www.w3.org/2000/svg" viewBox="0 0 100 100" width="100%" height="100%">
  <!-- الخلفية الدائرية -->
  <circle cx="50" cy="50" r="40" fill="#E1F5FE" />
  
  <!-- قاعدة المصحف السفلي المفتوح بخطوط رفيعة -->
  <path d="M 50,70 C 42,68 32,70 30,64 L 34,52 C 36,58 46,56 50,59 Z" fill="#FFFFFF" stroke="#2C3E50" stroke-width="2" stroke-linejoin="round" />
  <path d="M 50,70 C 58,68 68,70 70,64 L 66,52 C 64,58 54,56 50,59 Z" fill="#FFFFFF" stroke="#2C3E50" stroke-width="2" stroke-linejoin="round" />
  
  <!-- برج البث اللاسلكي المتصاعد -->
  <polygon points="46,62 54,62 51,36 49,36" fill="#CE93D8" stroke="#2C3E50" stroke-width="2" stroke-linejoin="round" />
  <circle cx="50" cy="34" r="2.5" fill="#2C3E50" />
  
  <!-- موجات البث الإذاعي الجانبية -->
  <path d="M 44,38 A 8,8 0 0,1 44,30" fill="none" stroke="#2C3E50" stroke-width="2" stroke-linecap="round" />
  <path d="M 40,42 A 14,14 0 0,1 40,26" fill="none" stroke="#2C3E50" stroke-width="1.5" stroke-linecap="round" />
  <path d="M 56,38 A 8,8 0 0,1 56,30" fill="none" stroke="#2C3E50" stroke-width="2" stroke-linecap="round" />
  <path d="M 60,42 A 14,14 0 0,1 60,26" fill="none" stroke="#2C3E50" stroke-width="1.5" stroke-linecap="round" />
</svg>
