<svg xmlns="http://www.w3.org/2000/svg" viewBox="0 0 100 100" width="100%" height="100%">
  <circle cx="50" cy="50" r="40" fill="#E1F5FE" />
  
  <path d="M 30,50 L 70,50 L 64,62 L 36,62 Z" fill="#FFFFFF" stroke="#2C3E50" stroke-width="2.5" stroke-linejoin="round" />
  
  <polygon points="50,28 50,50 62,44" fill="#FFE082" stroke="#2C3E50" stroke-width="2" stroke-linejoin="round" />
  <line x1="50" y1="28" x2="50" y2="50" stroke="#2C3E50" stroke-width="2.5" />
  
  <path d="M 24,66 C 30,64 36,68 42,66 C 48,64 54,68 60,66 C 66,64 72,68 76,66" fill="none" stroke="#2C3E50" stroke-width="2" stroke-linecap="round" />
  <path d="M 28,72 C 34,70 40,74 46,72 C 52,70 58,74 64,72 C 70,70 76,74 80,72" fill="none" stroke="#2C3E50" stroke-dasharray="2,3" stroke-width="1.5" stroke-linecap="round" />
</svg>
