<svg xmlns="http://www.w3.org/2000/svg" viewBox="0 0 100 100" width="100%" height="100%">
  <circle cx="50" cy="50" r="40" fill="#E8F5E9" />
  
  <path d="M 25,66 Q 40,54 55,62 Q 70,50 80,66" fill="none" stroke="#2C3E50" stroke-width="2" stroke-linecap="round" />
  
  <path d="M 50,66 L 50,44" stroke="#2C3E50" stroke-width="2.5" stroke-linecap="round" />
  <path d="M 50,44 Q 42,40 36,44" fill="none" stroke="#2C3E50" stroke-width="2" stroke-linecap="round" />
  <path d="M 50,44 Q 58,40 64,44" fill="none" stroke="#2C3E50" stroke-width="2" stroke-linecap="round" />
  <path d="M 50,41 Q 44,34 40,38" fill="none" stroke="#2C3E50" stroke-width="2" stroke-linecap="round" />
  <path d="M 50,41 Q 56,34 60,38" fill="none" stroke="#2C3E50" stroke-width="2" stroke-linecap="round" />
  
  <path d="M 66,66 L 66,52" stroke="#2C3E50" stroke-width="2" stroke-linecap="round" />
  <path d="M 66,52 Q 60,49 56,52" fill="none" stroke="#2C3E50" stroke-width="1.5" stroke-linecap="round" />
  <path d="M 66,52 Q 72,49 76,52" fill="none" stroke="#2C3E50" stroke-width="1.5" stroke-linecap="round" />
  
  <line x1="24" y1="66" x2="76" y2="66" stroke="#2C3E50" stroke-width="2.5" stroke-linecap="round" />
</svg>
