<svg xmlns="http://www.w3.org/2000/svg" viewBox="0 0 100 100" width="100%" height="100%">
  <circle cx="50" cy="50" r="40" fill="#F4EAE1" />
  
  <g transform="rotate(-30 50 50)">
    <rect x="24" y="44" width="52" height="12" rx="1" fill="#FFFFFF" stroke="#2C3E50" stroke-width="2.5" />
    <line x1="30" y1="44" x2="30" y2="48" stroke="#2C3E50" stroke-width="1.5" />
    <line x1="36" y1="44" x2="36" y2="50" stroke="#2C3E50" stroke-width="1.5" />
    <line x1="42" y1="44" x2="42" y2="48" stroke="#2C3E50" stroke-width="1.5" />
    <line x1="48" y1="44" x2="48" y2="50" stroke="#2C3E50" stroke-width="1.5" />
    <line x1="54" y1="44" x2="54" y2="48" stroke="#2C3E50" stroke-width="1.5" />
    <line x1="60" y1="44" x2="60" y2="50" stroke="#2C3E50" stroke-width="1.5" />
    <line x1="66" y1="44" x2="66" y2="48" stroke="#2C3E50" stroke-width="1.5" />
    <line x1="72" y1="44" x2="72" y2="50" stroke="#2C3E50" stroke-width="1.5" />
  </g>
  
  <path d="M 68,36 C 74,44 74,56 66,64" fill="none" stroke="#E67E22" stroke-width="2" stroke-linecap="round" stroke-dasharray="2,2" />
  <path d="M 32,64 C 26,56 26,44 34,36" fill="none" stroke="#E67E22" stroke-width="2" stroke-linecap="round" stroke-dasharray="2,2" />
</svg>
