<svg xmlns="http://www.w3.org/2000/svg" viewBox="0 0 100 100" width="100%" height="100%">
  <circle cx="50" cy="50" r="40" fill="#E1F5FE" />
  
  <circle cx="42" cy="40" r="11" fill="#FFF176" stroke="#2C3E50" stroke-width="2" />
  <line x1="42" y1="24" x2="42" y2="27" stroke="#2C3E50" stroke-width="2" stroke-linecap="round" />
  <line x1="28" y1="34" x2="31" y2="36" stroke="#2C3E50" stroke-width="2" stroke-linecap="round" />
  <line x1="56" y1="34" x2="53" y2="36" stroke="#2C3E50" stroke-width="2" stroke-linecap="round" />
  
  <path d="M36,60 C36,54 42,50 48,50 C52,46 60,46 64,51 C69,51 73,55 73,60 C73,65 69,68 64,68 L42,68 C38,68 36,65 36,60 Z" fill="#FFFFFF" stroke="#2C3E50" stroke-width="2.5" stroke-linejoin="round" />
  
  <line x1="46" y1="73" x2="44" y2="77" stroke="#29B6F6" stroke-width="2" stroke-linecap="round" />
  <line x1="54" y1="73" x2="52" y2="77" stroke="#29B6F6" stroke-width="2" stroke-linecap="round" />
  <line x1="62" y1="73" x2="60" y2="77" stroke="#29B6F6" stroke-width="2" stroke-linecap="round" />
</svg>
